<svg xmlns="http://www.w3.org/2000/svg" viewBox="0 0 64 64">
  <defs>
    <linearGradient id="g" x1="0" y1="0" x2="1" y2="1">
      <stop offset="0" stop-color="#4f8cff"/>
      <stop offset="1" stop-color="#22c197"/>
    </linearGradient>
  </defs>
  <rect x="6" y="6" width="52" height="52" rx="14" fill="url(#g)"/>
  <path d="M20 42V22h9c5 0 8 2.5 8 6.5 0 2.8-1.6 4.6-4 5.4 3 .6 5 2.8 5 6 0 4-3.2 6.6-8.6 6.6H20zm7-12h3c1.8 0 2.8-.9 2.8-2.4S31.8 25 30 25h-3v5zm0 11h3.6c2 0 3.2-1 3.2-2.7 0-1.7-1.2-2.7-3.4-2.7H27v5.4z" fill="#fff"/>
</svg>
