<svg xmlns="http://www.w3.org/2000/svg" width="512" height="512" viewBox="0 0 512 512">
  <defs>
    <linearGradient id="bg" x1="0" y1="0" x2="1" y2="1">
      <stop offset="0" stop-color="#4f8cff"/>
      <stop offset="1" stop-color="#22c197"/>
    </linearGradient>
    <linearGradient id="sheen" x1="0" y1="0" x2="0" y2="1">
      <stop offset="0" stop-color="#ffffff" stop-opacity="0.25"/>
      <stop offset="0.5" stop-color="#ffffff" stop-opacity="0"/>
    </linearGradient>
    <filter id="shadow" x="-20%" y="-20%" width="140%" height="140%">
      <feDropShadow dx="0" dy="10" stdDeviation="18" flood-color="#1e3a8a" flood-opacity="0.28"/>
    </filter>
  </defs>

  <!-- rounded-square app tile -->
  <rect x="56" y="56" width="400" height="400" rx="96" fill="url(#bg)" filter="url(#shadow)"/>
  <rect x="56" y="56" width="400" height="200" rx="96" fill="url(#sheen)"/>

  <!-- Ledger "B" monogram -->
  <path d="M182 356V156h86c46 0 74 23 74 59 0 25-14 41-36 48 27 6 45 25 45 55 0 37-29 60-78 60H182zm63-118h30c16 0 26-8 26-22s-10-22-26-22h-30v44zm0 98h33c18 0 29-9 29-24s-11-24-31-24h-31v48z" fill="#ffffff"/>
</svg>
